<svg width="31.000000" height="27.000000" viewBox="0 0 31 27" fill="none" xmlns="http://www.w3.org/2000/svg" xmlns:xlink="http://www.w3.org/1999/xlink">
	<desc>
			Created with Pixso.
	</desc>
	<defs/>
	<path id="Vector" d="M29.8672 25.7316C27.6221 21.9727 24.0986 19.3352 20.0039 18.2166C21.9941 17.236 23.5859 15.6342 24.5225 13.6695C25.459 11.7048 25.6855 9.49176 25.165 7.38721C24.6445 5.28265 23.4082 3.40924 21.6553 2.06905C19.9014 0.728851 17.7334 0 15.5 0C13.2666 0 11.0986 0.728851 9.34473 2.06905C7.5918 3.40924 6.35547 5.28265 5.83496 7.38721C5.31445 9.49176 5.54102 11.7048 6.47754 13.6695C7.41406 15.6342 9.00586 17.236 10.9961 18.2166C6.90137 19.3338 3.37793 21.9714 1.13281 25.7316C1.07129 25.8256 1.03027 25.9306 1.01172 26.0405C0.992188 26.1504 0.99707 26.2627 1.02441 26.3709C1.05176 26.479 1.10156 26.5807 1.16992 26.6698C1.23926 26.7588 1.32617 26.8335 1.42578 26.8892C1.52539 26.9449 1.63477 26.9805 1.74902 26.994C1.86328 27.0074 1.97852 26.9983 2.08887 26.9673C2.19922 26.9363 2.30273 26.884 2.3916 26.8135C2.48047 26.743 2.55371 26.6558 2.60645 26.5571C5.33398 21.9906 10.1533 19.265 15.5 19.265C20.8467 19.265 25.666 21.9906 28.3936 26.5571C28.4463 26.6558 28.5195 26.743 28.6084 26.8135C28.6973 26.884 28.8008 26.9363 28.9111 26.9673C29.0215 26.9983 29.1367 27.0074 29.251 26.994C29.3652 26.9805 29.4746 26.9449 29.5742 26.8892C29.6738 26.8335 29.7607 26.7588 29.8301 26.6698C29.8984 26.5807 29.9482 26.479 29.9756 26.3709C30.0029 26.2627 30.0078 26.1504 29.9883 26.0405C29.9697 25.9306 29.9287 25.8256 29.8672 25.7316ZM7.26465 9.63393C7.26465 8.05563 7.74805 6.51277 8.65332 5.20045C9.55762 3.88814 10.8438 2.86533 12.3486 2.26134C13.8535 1.65733 15.5088 1.49931 17.1064 1.80722C18.7041 2.11513 20.1709 2.87515 21.3232 3.99118C22.4746 5.10721 23.2588 6.52913 23.5762 8.0771C23.8945 9.62508 23.7314 11.2296 23.1084 12.6878C22.4844 14.1459 21.4297 15.3922 20.0752 16.2691C18.7207 17.146 17.1289 17.614 15.5 17.614C13.3164 17.6114 11.2236 16.7699 9.67969 15.2738C8.13574 13.7779 7.26758 11.7496 7.26465 9.63393Z" fill="#000000" fill-opacity="1.000000" fill-rule="nonzero"/>
</svg>
