<svg width="30.000000" height="27.000000" viewBox="0 0 30 27" fill="none" xmlns="http://www.w3.org/2000/svg" xmlns:xlink="http://www.w3.org/1999/xlink">
	<desc>
			Created with Pixso.
	</desc>
	<defs/>
	<path id="Vector" d="M21.8184 0C18.9541 0 16.4648 1.35988 15 3.63878C13.5352 1.35988 11.0459 0 8.18164 0C6.0127 0.00265503 3.93262 0.911255 2.39941 2.52647C0.865234 4.14169 0.00292969 6.33163 0 8.61589C0 12.809 2.48145 17.1729 7.37695 21.5842C9.62012 23.5971 12.0439 25.3765 14.6123 26.8974C14.7314 26.9647 14.8652 27 15 27C15.1348 27 15.2686 26.9647 15.3877 26.8974C17.9561 25.3765 20.3799 23.5971 22.623 21.5842C27.5186 17.1729 30 12.809 30 8.61589C29.9971 6.33163 29.1348 4.14169 27.6006 2.52647C26.0674 0.911255 23.9873 0.00265503 21.8184 0ZM15 25.1455C12.7627 23.7856 1.63672 16.6172 1.63672 8.61589C1.6377 6.78841 2.32812 5.03633 3.55566 3.74411C4.78223 2.45189 6.44629 1.72508 8.18164 1.72318C10.9473 1.72318 13.2695 3.27835 14.2432 5.7827C14.3047 5.94072 14.4102 6.07588 14.5449 6.17101C14.6797 6.26613 14.8379 6.31691 15 6.31691C15.1621 6.31691 15.3203 6.26613 15.4551 6.17101C15.5898 6.07588 15.6953 5.94072 15.7568 5.7827C16.7305 3.27835 19.0527 1.72318 21.8184 1.72318C23.5537 1.72508 25.2178 2.45189 26.4443 3.74411C27.6719 5.03633 28.3623 6.78841 28.3633 8.61589C28.3633 16.6172 17.2373 23.7856 15 25.1455Z" fill="#000000" fill-opacity="1.000000" fill-rule="nonzero"/>
</svg>
