<svg width="30.000000" height="30.000000" viewBox="0 0 30 30" fill="none" xmlns="http://www.w3.org/2000/svg" xmlns:xlink="http://www.w3.org/1999/xlink">
	<desc>
			Created with Pixso.
	</desc>
	<defs>
		<clipPath id="clip4_5859">
			<rect id="iconSearch" width="30.000000" height="30.000000" fill="white" fill-opacity="0"/>
		</clipPath>
	</defs>
	<rect id="iconSearch" width="30.000000" height="30.000000" fill="#FFFFFF" fill-opacity="0"/>
	<g clip-path="url(#clip4_5859)">
		<path id="Vector" d="M26.25 26.25L20.8213 20.8212M22.9893 17.5769C23.4922 16.3636 23.751 15.0632 23.751 13.75C23.751 12.4368 23.4922 11.1364 22.9893 9.92307C22.4863 8.70978 21.75 7.60736 20.8213 6.67874C19.8926 5.75014 18.79 5.01352 17.5771 4.51097C16.3643 4.00841 15.0635 3.74974 13.75 3.74974C12.4365 3.74974 11.1367 4.00841 9.92285 4.51097C8.70996 5.01352 7.60742 5.75014 6.67871 6.67874C4.80371 8.55415 3.75 11.0978 3.75 13.75C3.75 16.4022 4.80371 18.9458 6.67871 20.8212C8.55469 22.6967 11.0977 23.7503 13.75 23.7503C16.4023 23.7503 18.9463 22.6967 20.8213 20.8212C21.75 19.8926 22.4863 18.7902 22.9893 17.5769Z" stroke="#9A9A9A" stroke-opacity="1.000000" stroke-width="1.500000" stroke-linejoin="round"/>
	</g>
</svg>
