<svg width="20.000000" height="20.000000" viewBox="0 0 20 20" fill="none" xmlns="http://www.w3.org/2000/svg" xmlns:xlink="http://www.w3.org/1999/xlink">
	<desc>
			Created with Pixso.
	</desc>
	<defs/>
	<path id="iconDelete" d="M11.1475 9.99521L19.7627 1.37653C19.915 1.22388 20 1.01724 20 0.80188C20 0.586548 19.9141 0.380035 19.7617 0.22757C19.457 -0.0753479 18.9209 -0.0768738 18.6133 0.229095L10 8.84778L1.38379 0.226807C1.07812 -0.0753479 0.541016 -0.073822 0.236328 0.228333C0.161133 0.303589 0.100586 0.393158 0.0605469 0.491791C0.0195312 0.590424 -0.000976562 0.696167 0 0.802826C0 1.02005 0.0839844 1.22354 0.236328 1.37424L8.85156 9.99445L0.237305 18.6154C0.0849609 18.7683 0 18.9752 0.000976562 19.1908C0.000976562 19.4063 0.0869141 19.6129 0.239258 19.7652C0.387695 19.9113 0.59668 19.9954 0.8125 19.9954L0.816406 19.9954C1.0332 19.9946 1.24219 19.9097 1.38672 19.7621L10 11.1434L18.6162 19.7644C18.7686 19.9159 18.9717 20 19.1875 20C19.2949 20.0003 19.4004 19.9795 19.499 19.9388C19.5977 19.8982 19.6875 19.8384 19.7627 19.7629C19.8379 19.6875 19.8984 19.5979 19.9385 19.4993C19.9795 19.4007 20 19.295 20 19.1884C20 18.9719 19.916 18.7677 19.7627 18.617L11.1475 9.99521Z" fill="#9A9A9A" fill-opacity="1.000000" fill-rule="evenodd"/>
</svg>
