<svg width="18.418945" height="17.627045" viewBox="0 0 18.4189 17.627" fill="none" xmlns="http://www.w3.org/2000/svg" xmlns:xlink="http://www.w3.org/1999/xlink">
	<desc>
			Created with Pixso.
	</desc>
	<defs/>
	<path id="Vector" d="M17.917 17.125L13.7148 13.1138M15.3926 10.7166C15.7812 9.82016 15.9814 8.85934 15.9814 7.88901C15.9814 6.91867 15.7812 5.95782 15.3926 5.06134C15.0039 4.16489 14.4336 3.35031 13.7148 2.66418C12.9961 1.97806 12.1426 1.43378 11.2031 1.06244C10.2637 0.691132 9.25781 0.5 8.24121 0.5C7.22461 0.5 6.21777 0.691132 5.27832 1.06244C4.33984 1.43378 3.48633 1.97806 2.76758 2.66418C1.31543 4.0499 0.5 5.92932 0.5 7.88901C0.5 9.84866 1.31543 11.7281 2.76758 13.1138C4.21875 14.4995 6.1875 15.278 8.24121 15.278C10.2939 15.278 12.2627 14.4995 13.7148 13.1138C14.4336 12.4277 15.0039 11.6131 15.3926 10.7166Z" stroke="#000000" stroke-opacity="1.000000" stroke-width="1.000000" stroke-linejoin="round"/>
</svg>
