<svg width="33.000000" height="30.000000" viewBox="0 0 33 30" fill="none" xmlns="http://www.w3.org/2000/svg" xmlns:xlink="http://www.w3.org/1999/xlink">
	<desc>
			Created with Pixso.
	</desc>
	<defs/>
	<path id="Vector" d="M13.3164 27.9412C13.3164 28.3484 13.1973 28.7464 12.9746 29.085C12.752 29.4236 12.4355 29.6875 12.0654 29.8433C11.6953 29.9991 11.2871 30.0399 10.8945 29.9604C10.501 29.881 10.1406 29.6849 9.85645 29.397C9.57324 29.1091 9.38086 28.7422 9.30273 28.3428C9.22461 27.9435 9.26465 27.5295 9.41797 27.1533C9.57129 26.7771 9.83105 26.4556 10.1641 26.2293C10.4971 26.0031 10.8887 25.8824 11.29 25.8824C11.8271 25.8824 12.3428 26.0993 12.7227 26.4854C13.1025 26.8715 13.3164 27.3951 13.3164 27.9412ZM26.3428 25.8824C25.9424 25.8824 25.5498 26.0031 25.2168 26.2293C24.8838 26.4556 24.624 26.7771 24.4707 27.1533C24.3174 27.5295 24.2773 27.9435 24.3555 28.3428C24.4336 28.7422 24.627 29.1091 24.9102 29.397C25.1934 29.6849 25.5547 29.881 25.9473 29.9604C26.3408 30.0399 26.748 29.9991 27.1182 29.8433C27.4883 29.6875 27.8047 29.4236 28.0273 29.085C28.25 28.7464 28.3691 28.3484 28.3691 27.9412C28.3691 27.3951 28.1553 26.8715 27.7754 26.4854C27.3955 26.0993 26.8799 25.8824 26.3428 25.8824ZM32.9619 7.02353L28.834 20.6573C28.6357 21.3193 28.2334 21.899 27.6855 22.3103C27.1387 22.7217 26.4756 22.9429 25.7939 22.9412L11.8789 22.9412C11.1865 22.9386 10.5137 22.7078 9.96094 22.2835C9.40918 21.8593 9.00684 21.2644 8.81641 20.5882L3.58203 1.97794C3.56543 1.91634 3.52832 1.86217 3.47754 1.82367C3.42773 1.78519 3.36621 1.76448 3.30273 1.76471L0.868164 1.76471C0.637695 1.76471 0.416992 1.67174 0.253906 1.50627C0.0917969 1.34081 0 1.11636 0 0.882355C0 0.648346 0.0917969 0.423904 0.253906 0.258438C0.416992 0.0929565 0.637695 0 0.868164 0L3.30273 0C3.74316 0.00120544 4.1709 0.147339 4.52148 0.416473C4.87305 0.685608 5.12891 1.06322 5.25098 1.49265L6.48535 5.88235L32.1328 5.88235C32.2686 5.88249 32.4023 5.91498 32.5234 5.97719C32.6445 6.0394 32.75 6.12961 32.8301 6.24059C32.9111 6.35155 32.9648 6.48018 32.9873 6.61615C33.0107 6.75214 33.002 6.89166 32.9619 7.02353ZM30.957 7.64706L6.98242 7.64706L10.4863 20.1103C10.5732 20.4176 10.7559 20.6879 11.0068 20.8803C11.2578 21.0727 11.5645 21.1767 11.8789 21.1765L25.79 21.1765C26.0996 21.1765 26.4014 21.0757 26.6504 20.8889C26.8994 20.702 27.083 20.4389 27.1738 20.1382L30.957 7.64706Z" fill="#000000" fill-opacity="1.000000" fill-rule="nonzero"/>
</svg>
