<svg width="16.000000" height="16.000000" viewBox="0 0 16 16" fill="none" xmlns="http://www.w3.org/2000/svg" xmlns:xlink="http://www.w3.org/1999/xlink">
	<desc>
			Created with Pixso.
	</desc>
	<defs>
		<clipPath id="clip421_11146">
			<rect id="iconLocation" width="16.000000" height="16.000000" fill="white" fill-opacity="0"/>
		</clipPath>
	</defs>
	<rect id="iconLocation" width="16.000000" height="16.000000" fill="#FFFFFF" fill-opacity="0"/>
	<g clip-path="url(#clip421_11146)">
		<path id="Vector" d="M13.9277 1.33734L13.998 1.33334L14.085 1.33868L14.1445 1.34935L14.2266 1.37268L14.2979 1.40335L14.3652 1.44135L14.4248 1.48601L14.4795 1.53601L14.5137 1.57535L14.5684 1.65268L14.6035 1.71667C14.6348 1.78334 14.6543 1.854 14.6631 1.92734L14.667 1.99802C14.667 2.048 14.6611 2.09735 14.6504 2.14468L14.6279 2.22667L10.2725 14.278C10.1904 14.4577 10.0576 14.61 9.8916 14.7167C9.72461 14.8234 9.53125 14.8801 9.33301 14.88C9.15527 14.8806 8.98047 14.835 8.8252 14.7477C8.66992 14.6605 8.54004 14.5345 8.44727 14.382L8.4043 14.2973L6.16992 9.82935L1.72266 7.60535C1.55859 7.53009 1.41602 7.41296 1.31152 7.26567C1.20605 7.11838 1.1416 6.94608 1.12402 6.76601L1.12012 6.66667C1.12012 6.29335 1.32031 5.95201 1.68066 5.75334L1.77441 5.70668L13.7852 1.36934L13.8564 1.34935L13.9277 1.33734Z" fill="#000000" fill-opacity="1.000000" fill-rule="nonzero"/>
	</g>
</svg>
