<svg width="21.482422" height="19.761780" viewBox="0 0 21.4824 19.7618" fill="none" xmlns="http://www.w3.org/2000/svg" xmlns:xlink="http://www.w3.org/1999/xlink">
	<desc>
			Created with Pixso.
	</desc>
	<defs/>
	<path id="Vector" d="M8.66895 18.4056C8.66895 18.6738 8.59082 18.936 8.44629 19.1591C8.30078 19.3821 8.0957 19.5559 7.85449 19.6586C7.61328 19.7612 7.34766 19.7881 7.0918 19.7357C6.83594 19.6834 6.60156 19.5542 6.41699 19.3646C6.23242 19.1749 6.10645 18.9333 6.05566 18.6702C6.00488 18.4071 6.03125 18.1344 6.13086 17.8866C6.23047 17.6388 6.39941 17.427 6.61621 17.278C6.83301 17.1289 7.08887 17.0494 7.34961 17.0494C7.69922 17.0494 8.03516 17.1923 8.28223 17.4466C8.5293 17.701 8.66895 18.0459 8.66895 18.4056ZM17.1484 17.0494C16.8877 17.0494 16.6328 17.1289 16.416 17.278C16.1992 17.427 16.0293 17.6388 15.9297 17.8866C15.8301 18.1344 15.8037 18.4071 15.8545 18.6702C15.9053 18.9333 16.0312 19.1749 16.2158 19.3646C16.4004 19.5542 16.6357 19.6834 16.8916 19.7357C17.1475 19.7881 17.4121 19.7612 17.6533 19.6586C17.8945 19.5559 18.1006 19.3821 18.2451 19.1591C18.3906 18.936 18.4678 18.6738 18.4678 18.4056C18.4678 18.0459 18.3291 17.701 18.0811 17.4466C17.834 17.1923 17.498 17.0494 17.1484 17.0494ZM21.457 4.62659L18.7705 13.6075C18.6416 14.0436 18.3789 14.4254 18.0225 14.6964C17.667 14.9674 17.2344 15.1131 16.791 15.112L7.73242 15.112C7.28223 15.1103 6.84375 14.9582 6.48438 14.6787C6.125 14.3993 5.86328 14.0074 5.73926 13.562L2.33203 1.30292C2.32031 1.26233 2.29688 1.22665 2.26367 1.20129C2.23145 1.17593 2.19141 1.16232 2.15039 1.16245L0.56543 1.16245C0.415039 1.16245 0.271484 1.10123 0.166016 0.992218C0.0595703 0.883209 0 0.735382 0 0.581238C0 0.427063 0.0595703 0.279236 0.166016 0.170227C0.271484 0.0612488 0.415039 0 0.56543 0L2.15039 0C2.43652 0.000793457 2.71484 0.0970459 2.94336 0.274353C3.17188 0.45163 3.33887 0.700378 3.41797 0.983246L4.22168 3.87485L20.917 3.87485C21.0059 3.87494 21.0928 3.89636 21.1719 3.93732C21.251 3.9783 21.3193 4.03772 21.3721 4.11084C21.4238 4.18393 21.459 4.26868 21.4746 4.35825C21.4893 4.44781 21.4834 4.5397 21.457 4.62659ZM20.1523 5.03732L4.54492 5.03732L6.82617 13.2472C6.88281 13.4496 7.00195 13.6277 7.16504 13.7544C7.3291 13.8811 7.52832 13.9496 7.73242 13.9495L16.7891 13.9495C16.9902 13.9496 17.1865 13.8831 17.3486 13.76C17.5107 13.6369 17.6299 13.4637 17.6895 13.2656L20.1523 5.03732Z" fill="#000000" fill-opacity="1.000000" fill-rule="nonzero"/>
</svg>
